<svg width="277" height="64" viewBox="0 0 277 64" fill="none" xmlns="http://www.w3.org/2000/svg">
<path d="M91.7589 31.0188H113.78C114.246 31.0188 114.624 31.3967 114.624 31.8631V35.2064C114.624 35.6728 114.246 36.0507 113.78 36.0507H106.344C105.878 36.0507 105.5 36.4286 105.5 36.8951V61.3466C105.5 61.8131 105.122 62.191 104.655 62.191H100.887C100.42 62.191 100.042 61.8131 100.042 61.3466V36.8951C100.042 36.4286 99.6643 36.0507 99.1979 36.0507H91.7623C91.2959 36.0507 90.918 35.6728 90.918 35.2064V31.8631C90.918 31.3967 91.2959 31.0188 91.7623 31.0188H91.7589Z" fill="white"/>
<path d="M124.47 40.5278C130.993 40.5278 135.726 45.0491 135.726 51.6131C135.726 58.1771 130.993 62.6983 124.47 62.6983C117.947 62.6983 113.215 58.1771 113.215 51.6131C113.215 45.0491 117.947 40.5278 124.47 40.5278ZM124.47 58.0511C128.052 58.0511 130.524 55.45 130.524 51.6131C130.524 47.7761 128.052 45.1751 124.47 45.1751C120.889 45.1751 118.417 47.7761 118.417 51.6131C118.417 55.45 120.889 58.0511 124.47 58.0511Z" fill="white"/>
<path d="M158.839 41.968V61.3433C158.839 61.8098 158.461 62.1877 157.994 62.1877H154.756C154.334 62.1877 153.977 61.8745 153.919 61.4591L153.885 61.2072C153.793 60.5399 152.996 60.2471 152.489 60.6897C151.049 61.9528 148.955 62.7426 146.814 62.7426C141.952 62.7426 139.095 59.4606 139.095 54.2993V41.968C139.095 41.5016 139.473 41.1237 139.94 41.1237H143.453C143.92 41.1237 144.298 41.5016 144.298 41.968V52.4677C144.298 56.4748 145.874 58.0954 148.775 58.0954C152.057 58.0954 153.636 56.1752 153.636 52.1681V41.968C153.636 41.5016 154.014 41.1237 154.481 41.1237H157.994C158.461 41.1237 158.839 41.5016 158.839 41.968Z" fill="white"/>
<path d="M177.431 45.0149C177.431 45.4813 177.053 45.8592 176.587 45.8592H175.511C171.759 45.8592 169.414 47.8645 169.414 51.9568V61.3466C169.414 61.813 169.036 62.1909 168.569 62.1909H165.056C164.589 62.1909 164.211 61.813 164.211 61.3466V42.0121C164.211 41.5457 164.589 41.1678 165.056 41.1678H168.348C168.784 41.1678 169.145 41.498 169.189 41.9304C169.257 42.6453 170.122 42.9415 170.632 42.4377C171.701 41.3788 173.23 40.7422 175.13 40.7422C175.647 40.7422 176.168 40.7864 176.733 40.8886C177.135 40.9635 177.431 41.3107 177.431 41.7193V45.0115V45.0149Z" fill="white"/>
<path d="M181.139 62.1877V33.62H193.034C201.478 33.62 206.765 39.2069 206.765 47.9055C206.765 56.6042 201.478 62.1911 193.034 62.1911H181.139V62.1877ZM183.059 35.3699V60.4411H193.038C200.841 60.4411 204.807 55.9641 204.807 47.9055C204.807 39.8469 200.841 35.3699 193.038 35.3699H183.059Z" fill="white"/>
<path d="M210.006 57.3699C210.006 53.8292 213.077 52.5082 216.744 52.0826L227.104 50.8876V49.0117C227.104 44.4496 225.099 42.5294 220.111 42.5294C215.123 42.5294 212.393 44.4496 212.393 48.5419V48.7564H210.517V48.5419C210.517 44.4053 213.928 40.8237 220.196 40.8237C226.464 40.8237 228.895 44.4496 228.895 48.7972V62.1874H227.233V56.26H227.104C225.739 60.3114 221.817 62.6129 216.829 62.6129C212.822 62.6129 210.006 60.6928 210.006 57.3699ZM217.129 61.0366C222.46 61.0366 227.107 58.3504 227.107 52.6784V52.2937L217.428 53.4036C213.717 53.7883 211.886 54.6394 211.886 57.2405C211.886 59.8416 213.462 61.0366 217.129 61.0366Z" fill="white"/>
<path d="M233.246 55.2796V55.1945H235.122V55.409C235.122 59.4604 237.508 60.9516 243.18 60.9516C248.383 60.9516 250.258 59.6715 250.258 56.8594C250.258 54.3025 248.723 53.4071 244.886 52.8079L239.384 51.9976C235.718 51.4427 233.242 50.0775 233.242 46.6252C233.242 42.9143 236.909 40.8273 242.196 40.8273C247.909 40.8273 251.835 43.299 251.835 48.1607V48.2458H249.959V48.0313C249.959 44.4055 247.998 42.4444 242.156 42.4444C237.253 42.4444 235.118 43.6803 235.118 46.6218C235.118 49.0935 236.398 49.9889 240.15 50.5439L245.482 51.3542C249.574 51.95 252.134 53.4003 252.134 56.7708C252.134 60.7371 248.253 62.6131 243.18 62.6131C236.953 62.6131 233.246 60.0971 233.246 55.2796Z" fill="white"/>
<path d="M256.57 62.1877V33.62H258.49V47.6502H258.62C259.345 44.1537 262.16 40.8275 267.489 40.8275C273.416 40.8275 276.402 44.7938 276.402 50.2513V62.1911H274.526V50.1253C274.526 44.8823 272.01 42.5365 267.022 42.5365C260.969 42.5365 258.494 46.7582 258.494 52.6004V62.1945H256.573L256.57 62.1877Z" fill="white"/>
<path d="M86.3523 59.7058C86.3523 58.9602 85.8927 58.2997 85.205 58.0137C78.3312 55.1675 73.4831 48.3516 73.5478 40.4768C73.575 37.1506 74.467 34.0286 76.0093 31.3288C77.5516 28.629 81.2966 28.5949 82.958 31.1415L83.0091 31.2198C83.9998 32.7349 86.3557 32.0335 86.3557 30.2223V30.0657C86.3557 29.7116 86.2536 29.3644 86.0595 29.0682L85.6885 28.4996C84.153 26.147 85.3855 22.9365 88.1261 22.3101C89.5526 21.9833 91.0438 21.8164 92.5759 21.8369C97.0903 21.8913 101.227 23.5562 104.448 26.2764C104.774 26.5522 105.186 26.7156 105.612 26.7156H107.117C108.765 26.7156 109.568 24.6967 108.366 23.5698C104.962 20.3763 100.594 18.1974 95.7489 17.5131C90.9996 16.8424 86.4749 17.605 82.5426 19.4264C80.3127 20.458 77.766 18.834 77.766 16.3759V14.3775L83.7104 5.29069C84.3777 4.27273 84.7318 3.08113 84.7318 1.8657C84.7318 0.837522 83.8977 0 82.8661 0H72.3017C71.2735 0 70.436 0.834118 70.436 1.8657C70.436 2.89388 71.2701 3.7314 72.3017 3.7314C75.7267 3.7314 77.7831 7.53089 75.9106 10.3975L73.8508 13.5502H42.5118C41.6709 13.5502 40.8912 13.128 40.4316 12.4232L39.6009 11.1499C38.8791 10.0435 39.6724 8.5795 40.9934 8.5795C42.0215 8.5795 42.8591 7.74538 42.8591 6.7138C42.8591 5.68562 42.0249 4.8481 40.9934 4.8481H30.429C29.4008 4.8481 28.5633 5.68221 28.5633 6.7138C28.5633 7.74197 29.3974 8.5795 30.429 8.5795H32.1245C32.9654 8.5795 33.7451 9.00166 34.2047 9.70641L37.3641 14.5409C37.8884 15.3444 37.9259 16.3896 37.4152 17.2033C36.2883 19.0009 34.0344 19.7431 32.0734 18.9532C28.519 17.5233 24.5289 16.9445 20.3583 17.4654C10.097 18.7421 1.8409 26.736 0.281608 36.9531C-2.01647 52.0081 10.0697 64.8944 24.8898 63.9513C36.8228 63.1921 46.3351 53.3495 46.7164 41.3995C46.9173 35.0738 44.6056 29.2929 40.704 24.9759C39.3626 23.4915 39.1855 21.2921 40.2784 19.6171L40.4793 19.3107L56.1266 43.272C57.8664 43.2448 59.4801 42.3528 60.4334 40.8956L74.879 18.7796C76.2578 20.8904 76.0944 23.6583 74.467 25.5853C71.0114 29.6844 68.9414 34.9853 68.9755 40.7764C69.0333 50.5986 75.2126 59.0079 83.8602 62.4022C85.0552 62.872 86.3489 61.9903 86.3489 60.7067V59.7092L86.3523 59.7058ZM39.7064 31.3424C41.2691 34.0831 42.1611 37.2561 42.1611 40.6369C42.1611 52.3894 31.3755 61.6226 19.1633 58.9806C12.8036 57.6052 6.3962 51.1978 5.02076 44.8381C2.37882 32.6259 11.612 21.8403 23.3645 21.8403C24.7774 21.8403 26.1563 21.9969 27.4807 22.2931C30.2656 22.9161 31.5832 26.1198 30.0205 28.5098L23.0786 39.1388C22.5474 39.9525 22.6666 41.0726 23.4292 41.6787C24.3008 42.3766 25.5605 42.1587 26.1597 41.2463L32.7577 31.1449C34.4226 28.5949 38.205 28.6971 39.7132 31.3458L39.7064 31.3424ZM69.8777 19.6205L58.7822 36.6127C58.183 37.5319 56.8348 37.5319 56.2356 36.6127L45.1401 19.6205C44.4796 18.6093 45.2048 17.2679 46.4134 17.2679H68.6078C69.8164 17.2679 70.5416 18.6093 69.8811 19.6205H69.8777Z" fill="white"/>
</svg>
